<mxfile host="app.diagrams.net" agent="Mozilla/5.0 (Windows NT 10.0; Win64; x64) AppleWebKit/537.36 (KHTML, like Gecko) Chrome/128.0.0.0 Safari/537.36" version="24.7.8">
  <diagram name="Page-1" id="RnH2ioO7HXBg3wcbD8QG">
    <mxGraphModel dx="1433" dy="580" grid="1" gridSize="10" guides="1" tooltips="1" connect="1" arrows="1" fold="1" page="1" pageScale="1" pageWidth="850" pageHeight="1100" math="0" shadow="0">
      <root>
        <mxCell id="0" />
        <mxCell id="1" parent="0" />
        <mxCell id="pOmRrMjysHNLypyjvdHQ-5" value="" style="swimlane;startSize=0;" vertex="1" parent="1">
          <mxGeometry x="20" y="20" width="550" height="210" as="geometry" />
        </mxCell>
        <mxCell id="pOmRrMjysHNLypyjvdHQ-6" value="&lt;font style=&quot;font-size: 18px;&quot;&gt;User&lt;/font&gt;" style="text;html=1;align=center;verticalAlign=middle;resizable=0;points=[];autosize=1;strokeColor=none;fillColor=none;" vertex="1" parent="pOmRrMjysHNLypyjvdHQ-5">
          <mxGeometry x="70" y="-5" width="60" height="40" as="geometry" />
        </mxCell>
        <mxCell id="pOmRrMjysHNLypyjvdHQ-8" value="- user_id : integer&amp;nbsp;" style="text;html=1;align=center;verticalAlign=middle;whiteSpace=wrap;rounded=0;" vertex="1" parent="pOmRrMjysHNLypyjvdHQ-5">
          <mxGeometry y="30" width="110" height="30" as="geometry" />
        </mxCell>
        <mxCell id="pOmRrMjysHNLypyjvdHQ-9" value="- name : String" style="text;html=1;align=center;verticalAlign=middle;resizable=0;points=[];autosize=1;strokeColor=none;fillColor=none;" vertex="1" parent="pOmRrMjysHNLypyjvdHQ-5">
          <mxGeometry y="60" width="100" height="30" as="geometry" />
        </mxCell>
        <mxCell id="pOmRrMjysHNLypyjvdHQ-10" value="- password : String" style="text;html=1;align=center;verticalAlign=middle;resizable=0;points=[];autosize=1;strokeColor=none;fillColor=none;" vertex="1" parent="pOmRrMjysHNLypyjvdHQ-5">
          <mxGeometry y="85" width="120" height="30" as="geometry" />
        </mxCell>
        <mxCell id="pOmRrMjysHNLypyjvdHQ-11" value="- role : String" style="text;html=1;align=center;verticalAlign=middle;resizable=0;points=[];autosize=1;strokeColor=none;fillColor=none;" vertex="1" parent="pOmRrMjysHNLypyjvdHQ-5">
          <mxGeometry y="115" width="90" height="30" as="geometry" />
        </mxCell>
        <mxCell id="pOmRrMjysHNLypyjvdHQ-7" value="" style="endArrow=none;html=1;rounded=0;entryX=0.001;entryY=0.149;entryDx=0;entryDy=0;entryPerimeter=0;exitX=1.003;exitY=0.134;exitDx=0;exitDy=0;exitPerimeter=0;" edge="1" parent="pOmRrMjysHNLypyjvdHQ-5" source="pOmRrMjysHNLypyjvdHQ-5">
          <mxGeometry width="50" height="50" relative="1" as="geometry">
            <mxPoint x="200.2000000000001" y="30.870000000000033" as="sourcePoint" />
            <mxPoint x="5.684341886080802e-14" y="29.999999999999915" as="targetPoint" />
          </mxGeometry>
        </mxCell>
        <mxCell id="pOmRrMjysHNLypyjvdHQ-12" value="+ log_sighting(id: integer, date: dateTime, location: String, species: String, sightedBy: userID): void&amp;nbsp;" style="text;html=1;align=center;verticalAlign=middle;resizable=0;points=[];autosize=1;strokeColor=none;fillColor=none;" vertex="1" parent="pOmRrMjysHNLypyjvdHQ-5">
          <mxGeometry x="-5" y="145" width="550" height="30" as="geometry" />
        </mxCell>
        <mxCell id="pOmRrMjysHNLypyjvdHQ-13" value="+ validate_sighting(sightingId: integer): true" style="text;html=1;align=center;verticalAlign=middle;resizable=0;points=[];autosize=1;strokeColor=none;fillColor=none;" vertex="1" parent="pOmRrMjysHNLypyjvdHQ-5">
          <mxGeometry y="180" width="250" height="30" as="geometry" />
        </mxCell>
        <mxCell id="pOmRrMjysHNLypyjvdHQ-14" value="" style="endArrow=none;html=1;rounded=0;exitX=0;exitY=0.074;exitDx=0;exitDy=0;exitPerimeter=0;" edge="1" parent="pOmRrMjysHNLypyjvdHQ-5" source="pOmRrMjysHNLypyjvdHQ-12">
          <mxGeometry width="50" height="50" relative="1" as="geometry">
            <mxPoint x="80" y="130" as="sourcePoint" />
            <mxPoint x="550" y="170" as="targetPoint" />
            <Array as="points">
              <mxPoint x="550" y="150" />
            </Array>
          </mxGeometry>
        </mxCell>
        <mxCell id="pOmRrMjysHNLypyjvdHQ-30" value="" style="group" vertex="1" connectable="0" parent="1">
          <mxGeometry x="20" y="260" width="360" height="200" as="geometry" />
        </mxCell>
        <mxCell id="pOmRrMjysHNLypyjvdHQ-15" value="" style="swimlane;startSize=0;" vertex="1" parent="pOmRrMjysHNLypyjvdHQ-30">
          <mxGeometry width="160" height="200" as="geometry" />
        </mxCell>
        <mxCell id="pOmRrMjysHNLypyjvdHQ-24" value="- sighting_id : integer" style="text;html=1;align=center;verticalAlign=middle;resizable=0;points=[];autosize=1;strokeColor=none;fillColor=none;" vertex="1" parent="pOmRrMjysHNLypyjvdHQ-15">
          <mxGeometry x="-5" y="43" width="130" height="30" as="geometry" />
        </mxCell>
        <mxCell id="pOmRrMjysHNLypyjvdHQ-26" value="- dateSeen : dateTime" style="text;html=1;align=center;verticalAlign=middle;resizable=0;points=[];autosize=1;strokeColor=none;fillColor=none;" vertex="1" parent="pOmRrMjysHNLypyjvdHQ-15">
          <mxGeometry x="-5" y="70" width="140" height="30" as="geometry" />
        </mxCell>
        <mxCell id="pOmRrMjysHNLypyjvdHQ-27" value="- location: String" style="text;html=1;align=center;verticalAlign=middle;resizable=0;points=[];autosize=1;strokeColor=none;fillColor=none;" vertex="1" parent="pOmRrMjysHNLypyjvdHQ-15">
          <mxGeometry x="-5" y="100" width="110" height="30" as="geometry" />
        </mxCell>
        <mxCell id="pOmRrMjysHNLypyjvdHQ-28" value="- species : String" style="text;html=1;align=center;verticalAlign=middle;resizable=0;points=[];autosize=1;strokeColor=none;fillColor=none;" vertex="1" parent="pOmRrMjysHNLypyjvdHQ-15">
          <mxGeometry x="-5" y="130" width="110" height="30" as="geometry" />
        </mxCell>
        <mxCell id="pOmRrMjysHNLypyjvdHQ-29" value="- sighted_by: integer" style="text;html=1;align=center;verticalAlign=middle;resizable=0;points=[];autosize=1;strokeColor=none;fillColor=none;" vertex="1" parent="pOmRrMjysHNLypyjvdHQ-15">
          <mxGeometry x="-10" y="160" width="130" height="30" as="geometry" />
        </mxCell>
        <mxCell id="pOmRrMjysHNLypyjvdHQ-16" value="&lt;font style=&quot;font-size: 18px;&quot;&gt;Sighting&lt;/font&gt;" style="text;html=1;align=center;verticalAlign=middle;resizable=0;points=[];autosize=1;strokeColor=none;fillColor=none;" vertex="1" parent="pOmRrMjysHNLypyjvdHQ-30">
          <mxGeometry x="5" y="3" width="90" height="40" as="geometry" />
        </mxCell>
        <mxCell id="pOmRrMjysHNLypyjvdHQ-23" value="" style="endArrow=none;html=1;rounded=0;exitX=-0.072;exitY=0.858;exitDx=0;exitDy=0;exitPerimeter=0;entryX=1.008;entryY=0.178;entryDx=0;entryDy=0;entryPerimeter=0;" edge="1" parent="pOmRrMjysHNLypyjvdHQ-30" source="pOmRrMjysHNLypyjvdHQ-16" target="pOmRrMjysHNLypyjvdHQ-15">
          <mxGeometry width="50" height="50" relative="1" as="geometry">
            <mxPoint x="330" y="60" as="sourcePoint" />
            <mxPoint x="380" y="10" as="targetPoint" />
          </mxGeometry>
        </mxCell>
        <mxCell id="pOmRrMjysHNLypyjvdHQ-33" value="&lt;font style=&quot;font-size: 18px;&quot;&gt;Species&lt;/font&gt;" style="text;html=1;align=center;verticalAlign=middle;resizable=0;points=[];autosize=1;strokeColor=none;fillColor=none;" vertex="1" parent="pOmRrMjysHNLypyjvdHQ-30">
          <mxGeometry x="230" width="90" height="40" as="geometry" />
        </mxCell>
        <mxCell id="pOmRrMjysHNLypyjvdHQ-36" value="- scientific_name: String" style="text;html=1;align=center;verticalAlign=middle;resizable=0;points=[];autosize=1;strokeColor=none;fillColor=none;" vertex="1" parent="pOmRrMjysHNLypyjvdHQ-30">
          <mxGeometry x="210" y="43" width="150" height="30" as="geometry" />
        </mxCell>
        <mxCell id="pOmRrMjysHNLypyjvdHQ-37" value="- category: String" style="text;html=1;align=center;verticalAlign=middle;resizable=0;points=[];autosize=1;strokeColor=none;fillColor=none;" vertex="1" parent="pOmRrMjysHNLypyjvdHQ-30">
          <mxGeometry x="210" y="70" width="110" height="30" as="geometry" />
        </mxCell>
        <mxCell id="pOmRrMjysHNLypyjvdHQ-38" value="- habitat: String" style="text;html=1;align=center;verticalAlign=middle;resizable=0;points=[];autosize=1;strokeColor=none;fillColor=none;" vertex="1" parent="pOmRrMjysHNLypyjvdHQ-30">
          <mxGeometry x="210" y="100" width="100" height="30" as="geometry" />
        </mxCell>
        <mxCell id="pOmRrMjysHNLypyjvdHQ-31" value="" style="swimlane;startSize=0;" vertex="1" parent="1">
          <mxGeometry x="230" y="260" width="340" height="160" as="geometry" />
        </mxCell>
        <mxCell id="pOmRrMjysHNLypyjvdHQ-39" value="- population_trend: String" style="text;html=1;align=center;verticalAlign=middle;resizable=0;points=[];autosize=1;strokeColor=none;fillColor=none;" vertex="1" parent="pOmRrMjysHNLypyjvdHQ-31">
          <mxGeometry x="-5" y="130" width="160" height="30" as="geometry" />
        </mxCell>
        <mxCell id="pOmRrMjysHNLypyjvdHQ-35" value="" style="endArrow=none;html=1;rounded=0;exitX=-0.005;exitY=0.2;exitDx=0;exitDy=0;exitPerimeter=0;entryX=1.009;entryY=0.196;entryDx=0;entryDy=0;entryPerimeter=0;" edge="1" parent="1" source="pOmRrMjysHNLypyjvdHQ-31" target="pOmRrMjysHNLypyjvdHQ-31">
          <mxGeometry width="50" height="50" relative="1" as="geometry">
            <mxPoint x="340" y="380" as="sourcePoint" />
            <mxPoint x="390" y="330" as="targetPoint" />
          </mxGeometry>
        </mxCell>
        <mxCell id="pOmRrMjysHNLypyjvdHQ-41" value="" style="swimlane;startSize=0;" vertex="1" parent="1">
          <mxGeometry x="20" y="480" width="300" height="210" as="geometry" />
        </mxCell>
        <mxCell id="pOmRrMjysHNLypyjvdHQ-42" value="&lt;font style=&quot;font-size: 18px;&quot;&gt;Map&lt;/font&gt;" style="text;html=1;align=center;verticalAlign=middle;resizable=0;points=[];autosize=1;strokeColor=none;fillColor=none;" vertex="1" parent="pOmRrMjysHNLypyjvdHQ-41">
          <mxGeometry width="60" height="40" as="geometry" />
        </mxCell>
        <mxCell id="pOmRrMjysHNLypyjvdHQ-43" value="- center: String" style="text;html=1;align=center;verticalAlign=middle;resizable=0;points=[];autosize=1;strokeColor=none;fillColor=none;" vertex="1" parent="pOmRrMjysHNLypyjvdHQ-41">
          <mxGeometry y="35" width="100" height="30" as="geometry" />
        </mxCell>
        <mxCell id="pOmRrMjysHNLypyjvdHQ-44" value="- zoom_level: String" style="text;html=1;align=center;verticalAlign=middle;resizable=0;points=[];autosize=1;strokeColor=none;fillColor=none;" vertex="1" parent="pOmRrMjysHNLypyjvdHQ-41">
          <mxGeometry y="65" width="130" height="30" as="geometry" />
        </mxCell>
        <mxCell id="pOmRrMjysHNLypyjvdHQ-45" value="- markers: List[Marker]" style="text;html=1;align=center;verticalAlign=middle;resizable=0;points=[];autosize=1;strokeColor=none;fillColor=none;" vertex="1" parent="pOmRrMjysHNLypyjvdHQ-41">
          <mxGeometry y="95" width="140" height="30" as="geometry" />
        </mxCell>
        <mxCell id="pOmRrMjysHNLypyjvdHQ-46" value="+ add_marker(location: String, pop_up: String): void" style="text;html=1;align=center;verticalAlign=middle;resizable=0;points=[];autosize=1;strokeColor=none;fillColor=none;" vertex="1" parent="pOmRrMjysHNLypyjvdHQ-41">
          <mxGeometry y="120" width="300" height="30" as="geometry" />
        </mxCell>
        <mxCell id="pOmRrMjysHNLypyjvdHQ-47" value="+ save(self): void" style="text;html=1;align=center;verticalAlign=middle;resizable=0;points=[];autosize=1;strokeColor=none;fillColor=none;" vertex="1" parent="pOmRrMjysHNLypyjvdHQ-41">
          <mxGeometry y="150" width="110" height="30" as="geometry" />
        </mxCell>
        <mxCell id="pOmRrMjysHNLypyjvdHQ-48" value="+ display(self): void" style="text;html=1;align=center;verticalAlign=middle;resizable=0;points=[];autosize=1;strokeColor=none;fillColor=none;" vertex="1" parent="pOmRrMjysHNLypyjvdHQ-41">
          <mxGeometry x="-5" y="180" width="130" height="30" as="geometry" />
        </mxCell>
        <mxCell id="pOmRrMjysHNLypyjvdHQ-49" value="" style="endArrow=none;html=1;rounded=0;exitX=-0.003;exitY=0;exitDx=0;exitDy=0;exitPerimeter=0;" edge="1" parent="pOmRrMjysHNLypyjvdHQ-41" source="pOmRrMjysHNLypyjvdHQ-46">
          <mxGeometry width="50" height="50" relative="1" as="geometry">
            <mxPoint x="-250" y="260" as="sourcePoint" />
            <mxPoint x="299" y="120" as="targetPoint" />
          </mxGeometry>
        </mxCell>
        <mxCell id="pOmRrMjysHNLypyjvdHQ-50" value="" style="endArrow=none;html=1;rounded=0;exitX=-0.006;exitY=0.033;exitDx=0;exitDy=0;exitPerimeter=0;entryX=1;entryY=0.171;entryDx=0;entryDy=0;entryPerimeter=0;" edge="1" parent="pOmRrMjysHNLypyjvdHQ-41" source="pOmRrMjysHNLypyjvdHQ-43" target="pOmRrMjysHNLypyjvdHQ-41">
          <mxGeometry width="50" height="50" relative="1" as="geometry">
            <mxPoint x="320" y="20" as="sourcePoint" />
            <mxPoint x="370" y="-30" as="targetPoint" />
          </mxGeometry>
        </mxCell>
        <mxCell id="pOmRrMjysHNLypyjvdHQ-51" value="" style="swimlane;startSize=0;" vertex="1" parent="1">
          <mxGeometry x="360" y="480" width="200" height="160" as="geometry" />
        </mxCell>
        <mxCell id="pOmRrMjysHNLypyjvdHQ-52" value="&lt;font style=&quot;font-size: 18px;&quot;&gt;Marker&lt;/font&gt;" style="text;html=1;align=center;verticalAlign=middle;resizable=0;points=[];autosize=1;strokeColor=none;fillColor=none;" vertex="1" parent="pOmRrMjysHNLypyjvdHQ-51">
          <mxGeometry width="80" height="40" as="geometry" />
        </mxCell>
        <mxCell id="pOmRrMjysHNLypyjvdHQ-53" value="- latitude: String" style="text;html=1;align=center;verticalAlign=middle;resizable=0;points=[];autosize=1;strokeColor=none;fillColor=none;" vertex="1" parent="pOmRrMjysHNLypyjvdHQ-51">
          <mxGeometry y="40" width="110" height="30" as="geometry" />
        </mxCell>
        <mxCell id="pOmRrMjysHNLypyjvdHQ-54" value="- longitude: String" style="text;html=1;align=center;verticalAlign=middle;resizable=0;points=[];autosize=1;strokeColor=none;fillColor=none;" vertex="1" parent="pOmRrMjysHNLypyjvdHQ-51">
          <mxGeometry x="-5" y="70" width="120" height="30" as="geometry" />
        </mxCell>
        <mxCell id="pOmRrMjysHNLypyjvdHQ-55" value="- pop_up: String" style="text;html=1;align=center;verticalAlign=middle;resizable=0;points=[];autosize=1;strokeColor=none;fillColor=none;" vertex="1" parent="pOmRrMjysHNLypyjvdHQ-51">
          <mxGeometry y="100" width="110" height="30" as="geometry" />
        </mxCell>
        <mxCell id="pOmRrMjysHNLypyjvdHQ-56" value="- color: String" style="text;html=1;align=center;verticalAlign=middle;resizable=0;points=[];autosize=1;strokeColor=none;fillColor=none;" vertex="1" parent="pOmRrMjysHNLypyjvdHQ-51">
          <mxGeometry y="130" width="90" height="30" as="geometry" />
        </mxCell>
        <mxCell id="pOmRrMjysHNLypyjvdHQ-58" value="" style="endArrow=none;html=1;rounded=0;exitX=0;exitY=0.25;exitDx=0;exitDy=0;entryX=1;entryY=0.25;entryDx=0;entryDy=0;" edge="1" parent="1" source="pOmRrMjysHNLypyjvdHQ-51" target="pOmRrMjysHNLypyjvdHQ-51">
          <mxGeometry width="50" height="50" relative="1" as="geometry">
            <mxPoint x="340" y="520" as="sourcePoint" />
            <mxPoint x="390" y="470" as="targetPoint" />
          </mxGeometry>
        </mxCell>
      </root>
    </mxGraphModel>
  </diagram>
</mxfile>
